# xmcd
#
# Track frame offsets:
#	150
#	14175
#	26582
#	42977
#	57530
#	68555
#	81957
#	95542
#	110827
#	127062
#	139980
#	150647
#	169622
#	185287
#	198000
#
# Disc length: 2912 seconds
#
# Revision: 11
# Processed by: cddbd v1.5.2PL0 Copyright (c) Steve Scherf et al.
# Submitted via: EasyCDDAExtractor 15.3.0.1
#
DISCID=d40b5e0f
DTITLE=Pandora - ...Con Amor Eterno Vol II
DYEAR=1993
DGENRE=Latin
TTITLE0=Mi Fracaso
TTITLE1=Cuando Quieras Dejame
TTITLE2=Lo Se, Mañana Llorare
TTITLE3=Te Voy A Olvidar
TTITLE4=Ya No Quiero Volver Con Usted
TTITLE5=El Canalla
TTITLE6=De Serenata
TTITLE7=Sea Mi Condena
TTITLE8=Mañana Te Acordaras
TTITLE9=Silencio, Por Que Silencio
TTITLE10=La Primera Vez
TTITLE11=Dios Te Bendiga Mi Amor
TTITLE12=Cuando Todo Se Acabe
TTITLE13=Te Dedico Esta Cancion
TTITLE14=Adios Amor, Adios Mi Amor Te Vas
EXTD=
EXTT0=
EXTT1=
EXTT2=
EXTT3=
EXTT4=
EXTT5=
EXTT6=
EXTT7=
EXTT8=
EXTT9=
EXTT10=
EXTT11=
EXTT12=
EXTT13=
EXTT14=
PLAYORDER=
